<svg xmlns="http://www.w3.org/2000/svg" viewBox="0 0 54.22 20"><g id="Layer_2" data-name="Layer 2"><g id="Layer_1-2" data-name="Layer 1"><polygon points="11.85 1.74 11.66 1.9 8.45 0.72 4.88 3.79 5.51 8.39 1.94 11.33 2.81 15.78 5.29 16.76 5.52 18.09 5.54 18.19 5.45 18.15 0.96 16.38 0 11.53 3.89 8.34 3.2 3.33 7.08 0 11.85 1.74" fill="#0fc301"/><polygon points="11.93 1.68 11.94 1.78 11.85 1.74 11.93 1.68" fill="#0fc301"/><polygon points="16.45 3.65 12.92 2.36 13.53 6.05 12.75 6.69 12.13 2.91 12.83 2.33 11.98 2.02 11.94 1.78 16.64 3.49 16.45 3.65" fill="#0fc301"/><polygon points="7.03 17.45 6.95 17.42 7.01 17.36 7.03 17.45" fill="#0fc301"/><polygon points="9.36 15.43 7.01 17.36 6.94 16.93 6.94 16.93 9.29 14.99 9.36 15.43" fill="#0fc301"/><polygon points="10.12 20 5.4 18.19 5.45 18.15 5.52 18.09 6.54 17.26 6.95 17.42 6.91 17.45 9.88 18.59 10.12 20" fill="#0fc301"/><polygon points="12.83 2.33 12.13 2.91 11.98 2.02 12.83 2.33" fill="#4dc2e4"/><polygon points="8.6 10.15 4.71 13.35 5.29 16.76 2.81 15.78 1.94 11.33 5.51 8.39 4.88 3.79 8.45 0.72 11.66 1.9 8.04 4.88 8.6 10.15" fill="#4dc2e4"/><polygon points="7.01 17.36 6.95 17.42 6.54 17.26 6.94 16.93 7.01 17.36" fill="#4dc2e4"/><polygon points="7.03 17.45 6.95 17.42 7.01 17.36 7.03 17.45" fill="#3a27e0" opacity="0.28"/><polygon points="9.33 5.21 9.84 10.06 6.27 12.99 6.94 16.93 6.94 16.93 6.54 17.26 5.29 16.76 4.71 13.35 8.6 10.15 8.04 4.88 11.66 1.9 11.98 2.02 12.13 2.91 9.33 5.21" fill="#3a27e0" opacity="0.28"/><polygon points="12.9 2.27 12.92 2.36 12.83 2.33 12.9 2.27" fill="#3a27e0" opacity="0.28"/><polygon points="16.45 3.65 13.53 6.05 12.92 2.36 16.45 3.65" fill="#4dc2e4"/><polygon points="17.24 3.94 13.66 6.88 13.53 6.05 16.45 3.65 17.24 3.94" fill="#3a27e0" opacity="0.28"/><polygon points="9.88 18.59 6.91 17.45 6.95 17.42 7.03 17.45 7.01 17.36 9.36 15.43 9.88 18.59" fill="#4dc2e4"/><polygon points="7.01 17.36 7.03 17.45 6.95 17.42 7.01 17.36" fill="#4dc2e4"/><polygon points="11.24 19.12 9.88 18.59 9.36 15.43 10.48 14.51 11.24 19.12" fill="#3a27e0" opacity="0.28"/><path d="M13.26,14a2.49,2.49,0,0,1-.49,0,1.41,1.41,0,0,1-.34-.1v-.37h.73a.7.7,0,0,0,.55-.2.92.92,0,0,0,.17-.59.83.83,0,0,0-.11-.45A1.06,1.06,0,0,0,13.5,12l-.36-.23a1.79,1.79,0,0,1-.35-.28,1.15,1.15,0,0,1-.28-.44,2,2,0,0,1-.1-.7,1.38,1.38,0,0,1,.27-.9.92.92,0,0,1,.79-.34,3.6,3.6,0,0,1,.49,0,1.18,1.18,0,0,1,.33.1v.38h-.72a.47.47,0,0,0-.4.19.9.9,0,0,0-.14.53,1,1,0,0,0,.1.48.89.89,0,0,0,.28.3l.35.23a1.93,1.93,0,0,1,.36.28,1.27,1.27,0,0,1,.27.42,1.86,1.86,0,0,1,.11.68,1.47,1.47,0,0,1-.29,1A1.17,1.17,0,0,1,13.26,14Z"/><path d="M15.4,14V9.71h-.8V9.16h2.22v.55H16V14Z"/><path d="M16.69,14l.93-4.79h.78L19.33,14h-.65l-.22-1.19h-.89L17.34,14Zm1-1.74h.72l-.35-2h0Z"/><path d="M19.77,14V9.23a2.62,2.62,0,0,1,.4-.11,3.63,3.63,0,0,1,.5,0,1.32,1.32,0,0,1,.7.17,1,1,0,0,1,.39.53,3.06,3.06,0,0,1,.13,1,3.13,3.13,0,0,1-.08.75,1.08,1.08,0,0,1-.2.47,1,1,0,0,1-.29.28L22,14h-.69l-.6-1.54h-.33V14Zm.62-2.08h.28a.5.5,0,0,0,.44-.25,1.66,1.66,0,0,0,.16-.88,2.89,2.89,0,0,0-.07-.68.65.65,0,0,0-.2-.35.52.52,0,0,0-.33-.1h-.28Z"/><path d="M23.72,14a1.22,1.22,0,0,1-.74-.21,1.36,1.36,0,0,1-.44-.76,6.35,6.35,0,0,1-.14-1.49,6.45,6.45,0,0,1,.14-1.5A1.33,1.33,0,0,1,23,9.31a1.06,1.06,0,0,1,.67-.22,3.6,3.6,0,0,1,.49,0,1.18,1.18,0,0,1,.33.1v.38h-.67a.56.56,0,0,0-.39.16,1.25,1.25,0,0,0-.26.59,5.29,5.29,0,0,0-.1,1.2,5.25,5.25,0,0,0,.1,1.19,1.2,1.2,0,0,0,.28.59.61.61,0,0,0,.42.17H24V11.35h.62v2.53a1.28,1.28,0,0,1-.34.1A2.64,2.64,0,0,1,23.72,14Z"/><path d="M25,14l.93-4.79h.77L27.59,14H27l-.23-1.19h-.89L25.6,14Zm.95-1.74h.72l-.34-2h0Z"/><path d="M27.77,14v-.51l1.35-3.73H27.8V9.16h2v.52l-1.34,3.73h1.32V14Z"/><path d="M30.28,14V9.16h1.88v.55H30.9v1.47H32v.55H30.9v1.68h1.26V14Z"/><path d="M34,14V9.23a2.75,2.75,0,0,1,.41-.11,3.63,3.63,0,0,1,.5,0,1.28,1.28,0,0,1,.69.17,1.06,1.06,0,0,1,.4.55,3.34,3.34,0,0,1,.12,1,3.69,3.69,0,0,1-.12,1,1,1,0,0,1-.35.56.94.94,0,0,1-.59.17l-.2,0-.24,0V14ZM34.64,12h.29a.52.52,0,0,0,.33-.11.75.75,0,0,0,.19-.38,3,3,0,0,0,.07-.75,2.71,2.71,0,0,0-.07-.72.71.71,0,0,0-.19-.37.52.52,0,0,0-.33-.1h-.29Z"/><path d="M36.68,14V9.23a3.11,3.11,0,0,1,.41-.11,3.63,3.63,0,0,1,.5,0,1.28,1.28,0,0,1,.69.17,1,1,0,0,1,.4.53,3.1,3.1,0,0,1,.12,1,3.18,3.18,0,0,1-.07.75,1.21,1.21,0,0,1-.2.47.89.89,0,0,1-.3.28l.7,1.71h-.7l-.59-1.54H37.3V14Zm.62-2.08h.29a.5.5,0,0,0,.44-.25,1.79,1.79,0,0,0,.15-.88,3,3,0,0,0-.06-.68.72.72,0,0,0-.2-.35.52.52,0,0,0-.33-.1H37.3Z"/><path d="M40.51,14a.91.91,0,0,1-.63-.23,1.44,1.44,0,0,1-.41-.77,5.68,5.68,0,0,1-.15-1.46,5.58,5.58,0,0,1,.15-1.46,1.44,1.44,0,0,1,.41-.77.92.92,0,0,1,.63-.24.88.88,0,0,1,.62.24,1.51,1.51,0,0,1,.42.77,5.65,5.65,0,0,1,.14,1.46A5.75,5.75,0,0,1,41.55,13a1.51,1.51,0,0,1-.42.77A.87.87,0,0,1,40.51,14Zm0-.48a.32.32,0,0,0,.21-.09,1.05,1.05,0,0,0,.18-.31,3.91,3.91,0,0,0,.13-.61,8.7,8.7,0,0,0,0-1,9,9,0,0,0,0-1,3.51,3.51,0,0,0-.13-.6.93.93,0,0,0-.18-.31.29.29,0,0,0-.21-.1.26.26,0,0,0-.21.1.68.68,0,0,0-.18.31,2.26,2.26,0,0,0-.13.6,6.83,6.83,0,0,0-.05,1,6.6,6.6,0,0,0,.05,1,2.45,2.45,0,0,0,.13.61.75.75,0,0,0,.18.31A.29.29,0,0,0,40.51,13.54Z"/><path d="M42.68,14V9.71h-.8V9.16H44.1v.55h-.8V14Z"/><path d="M45.47,14a.89.89,0,0,1-.63-.23,1.51,1.51,0,0,1-.42-.77,6.25,6.25,0,0,1-.14-1.46,6.13,6.13,0,0,1,.14-1.46,1.51,1.51,0,0,1,.42-.77.9.9,0,0,1,.63-.24.88.88,0,0,1,.62.24,1.51,1.51,0,0,1,.42.77,6.13,6.13,0,0,1,.14,1.46A6.25,6.25,0,0,1,46.51,13a1.51,1.51,0,0,1-.42.77A.87.87,0,0,1,45.47,14Zm0-.48a.28.28,0,0,0,.2-.09.87.87,0,0,0,.19-.31,3.11,3.11,0,0,0,.12-.61,6.6,6.6,0,0,0,.05-1,6.83,6.83,0,0,0-.05-1,2.84,2.84,0,0,0-.12-.6.79.79,0,0,0-.19-.31.26.26,0,0,0-.2-.1.26.26,0,0,0-.21.1.68.68,0,0,0-.18.31,2.26,2.26,0,0,0-.13.6,6.83,6.83,0,0,0-.05,1,6.6,6.6,0,0,0,.05,1,2.45,2.45,0,0,0,.13.61.75.75,0,0,0,.18.31A.29.29,0,0,0,45.47,13.54Z"/><path d="M48.33,14a1.07,1.07,0,0,1-.67-.21,1.4,1.4,0,0,1-.4-.76,5.85,5.85,0,0,1-.14-1.49,6.54,6.54,0,0,1,.13-1.5,1.33,1.33,0,0,1,.4-.75,1,1,0,0,1,.63-.22,3.47,3.47,0,0,1,.49,0,1.41,1.41,0,0,1,.34.1v.38h-.62a.53.53,0,0,0-.39.16,1.35,1.35,0,0,0-.27.59,6.09,6.09,0,0,0-.09,1.2,5.25,5.25,0,0,0,.1,1.19,1,1,0,0,0,.28.59.61.61,0,0,0,.42.17h.62v.37a1.45,1.45,0,0,1-.33.1A2.6,2.6,0,0,1,48.33,14Z"/><path d="M50.55,14a.87.87,0,0,1-.62-.23,1.51,1.51,0,0,1-.42-.77,5.75,5.75,0,0,1-.14-1.46,5.65,5.65,0,0,1,.14-1.46,1.51,1.51,0,0,1,.42-.77.88.88,0,0,1,.62-.24.92.92,0,0,1,.63.24,1.44,1.44,0,0,1,.41.77,5.58,5.58,0,0,1,.15,1.46A5.68,5.68,0,0,1,51.59,13a1.44,1.44,0,0,1-.41.77A.91.91,0,0,1,50.55,14Zm0-.48a.29.29,0,0,0,.21-.09.75.75,0,0,0,.18-.31,2.45,2.45,0,0,0,.13-.61,6.6,6.6,0,0,0,0-1,6.83,6.83,0,0,0,0-1,2.26,2.26,0,0,0-.13-.6.68.68,0,0,0-.18-.31.26.26,0,0,0-.21-.1.29.29,0,0,0-.21.1.93.93,0,0,0-.18.31,3.51,3.51,0,0,0-.13.6,9,9,0,0,0,0,1,8.7,8.7,0,0,0,0,1,3.91,3.91,0,0,0,.13.61,1.05,1.05,0,0,0,.18.31A.32.32,0,0,0,50.55,13.54Z"/><path d="M52.34,14V9.16H53v4.25h1.26V14Z"/><path d="M13,16.75a.57.57,0,0,1-.32-.09.52.52,0,0,1-.2-.3,2.37,2.37,0,0,1,0-1.22.52.52,0,0,1,.2-.3.57.57,0,0,1,.32-.09.55.55,0,0,1,.32.09.58.58,0,0,1,.21.3,2.69,2.69,0,0,1,0,1.22.58.58,0,0,1-.21.3A.55.55,0,0,1,13,16.75Zm0-.17a.2.2,0,0,0,.13,0,.26.26,0,0,0,.11-.12.8.8,0,0,0,.08-.26,2.82,2.82,0,0,0,0-.82.73.73,0,0,0-.08-.26.36.36,0,0,0-.11-.13.28.28,0,0,0-.13,0,.31.31,0,0,0-.13,0,.36.36,0,0,0-.11.13,1,1,0,0,0-.08.26,2.82,2.82,0,0,0,0,.82,1.15,1.15,0,0,0,.08.26.26.26,0,0,0,.11.12A.22.22,0,0,0,13,16.58Z" fill="#a30659"/><path d="M14,16.72V14.81l.21-.05h.24a.88.88,0,0,1,.35.06A.38.38,0,0,1,15,15a1.09,1.09,0,0,1,.06.4,1,1,0,0,1,0,.31.48.48,0,0,1-.09.19.42.42,0,0,1-.15.11l.33.69h-.28l-.3-.64H14.2v.64Zm.25-.83h.2a.37.37,0,0,0,.27-.1.57.57,0,0,0,.09-.37,1.08,1.08,0,0,0,0-.3A.31.31,0,0,0,14.6,15a.4.4,0,0,0-.2,0h-.2Z" fill="#a30659"/><path d="M15.35,16.72V14.78h.25v1.94Z" fill="#a30659"/><path d="M16.53,16.75a.57.57,0,0,1-.32-.09.52.52,0,0,1-.2-.3,2,2,0,0,1-.07-.61,2,2,0,0,1,.07-.61.52.52,0,0,1,.2-.3.57.57,0,0,1,.32-.09.53.53,0,0,1,.32.09.58.58,0,0,1,.21.3,2,2,0,0,1,.07.61,2,2,0,0,1-.07.61.58.58,0,0,1-.21.3A.53.53,0,0,1,16.53,16.75Zm0-.17a.2.2,0,0,0,.13,0,.26.26,0,0,0,.11-.12.8.8,0,0,0,.08-.26,2.82,2.82,0,0,0,0-.82.73.73,0,0,0-.08-.26.36.36,0,0,0-.11-.13.28.28,0,0,0-.13,0l-.13,0a.36.36,0,0,0-.11.13,1,1,0,0,0-.08.26,2.43,2.43,0,0,0,0,.41,2.43,2.43,0,0,0,0,.41,1.15,1.15,0,0,0,.08.26.26.26,0,0,0,.11.12A.24.24,0,0,0,16.53,16.58Z" fill="#a30659"/><path d="M17.46,16.72V14.78h.28l.57,1.37h0V14.78h.25v1.94H18.3l-.57-1.37h0v1.37Z" fill="#a30659"/></g></g></svg>